HIERARCHY
ROOT simHips
{
  OFFSET 0.173958 99.4949 -0.602987
  CHANNELS 6 Xposition Yposition Zposition Zrotation Xrotation Yrotation
  JOINT simSpine
  {
    OFFSET -0.000355721 21.3001 -0.016921
    CHANNELS 3 Zrotation Xrotation Yrotation
    JOINT simLeftArm
    {
      OFFSET 13.5181 21.3012 0
      CHANNELS 3 Zrotation Xrotation Yrotation
      JOINT simLeftForeArm
      {
        OFFSET 24.5783 0 0
        CHANNELS 3 Zrotation Xrotation Yrotation
        JOINT simLeftHand
        {
          OFFSET 24.5783 0 0
          CHANNELS 3 Zrotation Xrotation Yrotation
          End Site
          {
            OFFSET 7.32568 1.52588e-005 0.0169305
          }
        }
      }
    }
    JOINT simHead
    {
      OFFSET 0 27.4458 -0.00489235
      CHANNELS 3 Zrotation Xrotation Yrotation
      End Site
      {
        OFFSET 0 0 0
      }
    }
    JOINT simRightArm
    {
      OFFSET -13.5174 21.3012 0
      CHANNELS 3 Zrotation Xrotation Yrotation
      JOINT simRightForeArm
      {
        OFFSET -24.5783 0 0
        CHANNELS 3 Zrotation Xrotation Yrotation
        JOINT simRightHand
        {
          OFFSET -24.5783 0 0
          CHANNELS 3 Zrotation Xrotation Yrotation
          End Site
          {
            OFFSET -7.32568 1.52588e-005 0.0169305
          }
        }
      }
    }
  }
  JOINT simRightUpLeg
  {
    OFFSET -8.44614 -9.41038 0.835684
    CHANNELS 3 Zrotation Xrotation Yrotation
    JOINT simRightLeg
    {
      OFFSET 0 -40.9639 0
      CHANNELS 3 Zrotation Xrotation Yrotation
      JOINT simRightFoot
      {
        OFFSET 0 -40.9639 0
        CHANNELS 3 Zrotation Xrotation Yrotation
        End Site
        {
          OFFSET 0.50614 -9.67405 14.6709
        }
      }
    }
  }
  JOINT simLeftUpLeg
  {
    OFFSET 8.44614 -9.41038 0.835684
    CHANNELS 3 Zrotation Xrotation Yrotation
    JOINT simLeftLeg
    {
      OFFSET 0 -40.9639 0
      CHANNELS 3 Zrotation Xrotation Yrotation
      JOINT simLeftFoot
      {
        OFFSET 0 -40.9639 0
        CHANNELS 3 Zrotation Xrotation Yrotation
        End Site
        {
          OFFSET -0.50614 -9.67405 14.6709
        }
      }
    }
  }
}
MOTION
Frames:	14
Frame Time:	0.0333333
0.173958 99.4949 -0.602987 2.13114e-007 -1.18586e-008 -6.36984 1.10394e-007 9.7473e-007 -4.26227e-007 -63.586 -0.58558 10.3065 -3.29265 3.23211 -26.1106 -2.62593e-007 -5.63712e-006 1.65074e-005 -1.75316e-008 -2.56626e-006 -3.40982e-006 70.7137 -13.7852 -4.76638 7.66149 2.64691 18.9472 -2.51926e-005 -8.01545e-006 -1.94328e-006 -5.43727 -17.2503 -2.06008 11.9501 35.0826 -3.64252 2.6559 -19.3455 2.97081 3.53007 -17.8796 0.329084 -4.79431 36.8205 1.51163 0.980766 -21.5029 0.0538263 
0.477229 99.2313 -0.546601 0.0120766 -0.0872734 -6.54262 -0.0336618 0.22159 -0.0420435 -63.0791 -2.64283 10.3438 -3.62608 3.25573 -27.5591 0.474767 0.188405 -0.64442 -0.00364926 -2.00562 -0.0575434 69.9183 -13.9114 -5.0819 8.24119 2.88929 21.2665 0.469723 -1.21682 -0.677017 -5.88404 -17.6987 -2.10695 12.4668 36.1557 -4.27358 2.85528 -19.8517 3.60118 3.35605 -18.3197 0.330187 -5.01704 37.9678 1.85648 1.22305 -22.1282 0.106593 
0.831317 98.9664 -0.57797 0.0639138 0.0491665 -6.82792 -0.0864874 0.398871 -0.0501269 -62.1188 -5.92079 10.1907 -4.28298 3.32712 -30.4213 2.79599 1.30373 -1.40263 -0.0686646 -4.88971 0.073085 68.3551 -14.6209 -5.03799 9.1328 3.3178 24.9138 -0.0187254 -2.66973 -1.34321 -6.41035 -18.475 -2.1981 13.0313 37.2096 -5.38781 3.2437 -20.1954 4.82778 3.13578 -19.0602 0.342037 -5.25251 39.0925 2.33999 1.45609 -22.6659 0.159622 
1.26056 98.7857 -0.704171 0.326993 0.527571 -7.67451 -0.261623 0.384251 0.15903 -60.6334 -10.3351 9.80477 -5.19267 3.48142 -34.4177 7.72625 4.91996 -3.71134 -0.0344573 -8.34255 0.731841 66.0615 -15.6378 -3.98241 10.1708 3.90916 29.3094 -2.11056 -2.44368 -1.46995 -7.13558 -19.68 -2.36748 13.4745 38.0153 -6.1116 3.61785 -20.1506 6.26395 2.67549 -19.9979 0.363242 -5.44545 39.7635 3.36985 1.53813 -22.939 0.184594 
1.73047 98.8274 -0.88045 0.405481 1.0234 -9.30435 -0.0825438 0.401259 0.660327 -58.2649 -15.8562 9.07003 -6.42497 3.79702 -39.9232 10.672 6.85378 -4.63777 0.166137 -12.0157 2.15591 63.1889 -17.0928 -1.46892 11.2796 4.66583 34.2384 -5.69443 0.205054 -0.265464 -7.35001 -20.5009 -2.49139 13.2652 37.6601 -5.2786 3.68893 -19.4746 7.32479 2.39292 -20.4966 0.370773 -5.52182 39.6407 5.09305 1.30433 -22.8624 0.146489 
2.15652 98.9437 -1.0539 0.423011 1.46413 -11.0247 0.209593 0.43469 1.19415 -55.809 -21.5757 8.25457 -7.64006 4.23675 -45.509 13.7082 8.40188 -5.60477 0.525638 -15.5891 3.74235 60.5183 -18.8217 1.59519 12.3203 5.51457 39.1576 -9.32082 2.97267 1.02221 -7.48113 -21.1494 -2.59347 13.051 37.3208 -4.3627 3.76126 -18.5008 8.02579 2.2134 -20.7778 0.368659 -5.53398 39.2296 6.85286 0.993701 -22.6675 0.0928287 
2.32836 99.2118 -1.16916 0.213588 1.64135 -12.4082 0.715819 0.519424 1.59861 -53.2864 -27.1228 7.12863 -8.58561 4.67604 -50.009 19.3152 9.66039 -8.13811 0.75657 -18.5963 5.05593 58.5838 -21.4426 5.5016 13.1831 6.34202 43.5276 -10.9524 4.1847 1.46828 -7.70888 -21.3068 -2.62021 13.3616 38.2554 -4.51738 4.2874 -16.6724 7.35055 2.38541 -20.4235 0.361876 -5.43583 38.291 8.16522 0.604411 -22.2375 0.0199477 
2.20946 99.5558 -1.3203 0.199074 1.64803 -13.0494 0.939793 0.638065 1.96012 -51.617 -33.1899 5.52144 -9.32073 5.08274 -53.6302 23.5019 10.0498 -10.634 0.975597 -21.6955 5.61995 57.6833 -25.1394 9.51085 13.9261 7.16606 47.577 -12.9569 6.27383 2.79682 -8.34121 -21.2492 -2.63319 14.0842 40.0272 -5.6717 5.12432 -14.548 5.75937 2.47287 -19.7198 0.359863 -5.2285 36.8368 8.62948 0.303872 -21.4596 -0.0396559 
1.80063 99.605 -1.59319 0.415864 1.66509 -12.6926 0.883336 0.703219 2.05598 -50.8031 -38.7611 3.26992 -9.90165 5.44886 -56.5866 26.1957 11.0366 -12.4655 0.989824 -24.9079 5.43184 57.4227 -28.9224 13.2305 14.5379 7.94239 51.1816 -16.1714 9.25748 5.30255 -9.14633 -21.2458 -2.66497 15.1428 42.189 -8.11398 6.03099 -13.7744 4.29647 2.60955 -20.1677 0.374425 -5.27266 37.0162 8.27093 0.09072 -20.5217 -0.093972 
1.10767 99.2269 -1.92605 0.642873 1.79573 -11.7692 0.616633 0.64066 2.1115 -50.8674 -43.0438 0.0562138 -10.239 5.68125 -58.349 28.781 12.3579 -14.4218 1.04333 -28.0405 4.63086 57.5424 -32.4902 16.2449 15.0807 8.72405 54.6492 -18.2261 11.726 6.87284 -9.48018 -20.9321 -2.67615 15.9226 43.6071 -10.733 6.48786 -15.7664 3.28672 3.32076 -23.6124 0.480751 -6.12284 41.4435 7.94836 -0.361924 -17.0936 -0.217099 
0.223896 98.56 -2.12522 1.41859 1.56259 -10.1093 -0.241604 0.690162 1.91847 -52.3106 -46.407 -4.2469 -10.3541 5.76412 -58.9591 29.7575 13.4392 -16.622 0.332026 -31.5017 3.31221 57.3194 -35.9549 18.1569 15.5844 9.55325 58.1859 -18.8083 14.2244 8.02963 -10.0224 -19.1994 -2.51688 16.0409 43.7348 -13.7941 6.97604 -21.1692 2.69565 3.46409 -27.0111 0.615942 -7.15574 46.0262 7.06564 -0.580203 -12.8476 -0.276263 
-0.467336 97.403 -2.23927 2.30657 1.12204 -8.59093 -1.04747 0.841732 1.83353 -55.2103 -48.9521 -9.50293 -10.3157 5.73628 -58.7552 30.8062 12.7284 -18.4351 -0.600293 -34.8878 1.91409 56.3444 -38.7389 19.9481 15.9482 10.2318 60.9926 -20.5782 16.5161 9.35771 -10.8686 -17.7124 -2.34651 16.6467 44.6312 -17.0929 7.59867 -27.8146 2.65196 3.13404 -29.1461 0.659935 -8.17821 49.9284 6.36237 -0.393322 -12.7682 -0.27447 
-0.781089 95.8682 -2.22437 2.92213 0.0238491 -7.80115 -1.41876 1.24603 1.88793 -58.6494 -50.7741 -14.7578 -10.1866 5.64414 -58.0729 32.9042 11.9373 -20.4427 -0.849944 -37.3722 1.84109 55.5771 -40.553 23.0319 16.0134 10.3626 61.5256 -22.9791 18.7247 11.7159 -12.0604 -17.2876 -2.2065 18.7542 47.8096 -20.0675 8.18167 -33.1592 3.10681 3.00699 -30.5242 0.826956 -9.83096 54.3274 6.70732 0.0403485 -14.4557 -0.275275 
-0.809519 93.9221 -1.90773 2.94108 -1.64692 -7.96854 -1.10837 1.29817 1.95666 -62.4427 -52.6802 -19.9212 -10.0541 5.55197 -57.3784 32.8026 11.2949 -21.6148 -0.371827 -38.3252 2.85514 55.5715 -40.8948 28.1085 15.8005 9.94708 59.8233 -24.3431 20.5061 13.0012 -13.2373 -17.7132 -2.05991 22.6997 52.9153 -22.7707 8.35633 -36.7616 3.65893 4.91382 -32.9018 2.09214 -14.4541 60.939 9.49366 0.855773 -16.4139 -0.448182 
